<svg xmlns="http://www.w3.org/2000/svg" id="canvas" viewBox="196.738 285.064 925.710 229.605"><path d="M 209.01,298.02 C 208.21 298.31, 207.52 298.44, 206.73 300.22 C 205.94 301.99, 205.56 303.14, 205.05 306.88 C 204.53 310.63, 204.58 313.07, 204.15 318.93 C 203.72 324.78, 203.43 328.55, 202.89 336.15 C 202.36 343.75, 202.01 348.46, 201.47 356.93 C 200.93 365.41, 200.55 370.17, 200.20 378.51 C 199.86 386.85, 199.69 391.30, 199.75 398.65 C 199.82 405.99, 199.94 409.50, 200.52 415.25 C 201.10 421.00, 201.51 423.43, 202.67 427.40 C 203.83 431.38, 204.41 433.05, 206.31 435.11 C 208.21 437.18, 209.72 437.74, 212.16 437.72 C 214.60 437.70, 216.18 437.25, 218.50 435.01 C 220.83 432.77, 221.63 430.91, 223.78 426.51 C 225.94 422.11, 227.06 419.31, 229.29 413.01 C 231.52 406.72, 232.68 402.79, 234.95 395.03 C 237.21 387.27, 238.36 382.72, 240.63 374.22 C 242.89 365.71, 244.05 360.89, 246.25 352.49 C 248.46 344.09, 249.55 339.71, 251.64 332.23 C 253.73 324.74, 254.77 321.05, 256.70 315.06 C 258.64 309.07, 259.73 306.35, 261.32 302.29 C 262.92 298.23, 263.90 296.82, 264.68 294.77 C 265.45 292.72, 265.28 292.19, 265.20 292.03 C 265.12 291.87, 264.46 292.09, 264.26 293.96 C 264.05 295.83, 264.18 297.12, 264.17 301.38 C 264.16 305.63, 264.31 308.62, 264.20 315.23 C 264.10 321.84, 263.97 326.12, 263.64 334.43 C 263.30 342.73, 263.02 347.77, 262.54 356.75 C 262.07 365.73, 261.76 370.82, 261.27 379.32 C 260.78 387.83, 260.54 392.08, 260.09 399.26 C 259.65 406.44, 259.42 409.70, 259.05 415.22 C 258.68 420.73, 258.39 423.10, 258.23 426.84 C 258.06 430.59, 258.03 431.87, 258.23 433.95 C 258.42 436.03, 258.81 436.41, 259.20 437.25 C 259.58 438.09, 259.84 438.02, 260.17 438.16 C 260.50 438.30, 260.64 438.16, 260.85 437.94 C 261.05 437.71, 261.01 437.85, 261.22 437.03 C 261.43 436.21, 261.83 435.87, 261.90 433.84 C 261.98 431.81, 261.66 430.59, 261.59 426.89 C 261.52 423.19, 261.45 420.83, 261.57 415.33 C 261.69 409.82, 261.86 406.55, 262.19 399.37 C 262.52 392.19, 262.74 387.93, 263.21 379.43 C 263.67 370.93, 263.99 365.84, 264.53 356.87 C 265.06 347.89, 265.37 342.85, 265.90 334.55 C 266.43 326.25, 266.67 321.98, 267.16 315.37 C 267.65 308.75, 268.14 305.84, 268.34 301.48 C 268.54 297.11, 268.78 295.67, 268.14 293.54 C 267.49 291.41, 266.43 290.90, 265.11 290.82 C 263.79 290.75, 262.87 291.09, 261.54 293.18 C 260.21 295.27, 259.89 297.02, 258.48 301.26 C 257.07 305.50, 256.23 308.29, 254.47 314.38 C 252.72 320.46, 251.71 324.17, 249.70 331.69 C 247.69 339.22, 246.60 343.60, 244.40 352.00 C 242.20 360.41, 241.03 365.22, 238.71 373.70 C 236.39 382.17, 235.20 386.72, 232.80 394.38 C 230.39 402.04, 229.12 405.94, 226.67 412.02 C 224.22 418.10, 222.84 420.82, 220.54 424.78 C 218.24 428.73, 216.88 429.85, 215.17 431.79 C 213.45 433.74, 213.20 434.32, 211.97 434.51 C 210.74 434.71, 210.29 434.38, 209.04 432.77 C 207.78 431.16, 206.90 430.02, 205.69 426.46 C 204.48 422.89, 203.76 420.53, 203.00 414.96 C 202.23 409.39, 202.04 405.89, 201.89 398.61 C 201.73 391.34, 201.88 386.90, 202.22 378.59 C 202.56 370.29, 202.96 365.53, 203.59 357.08 C 204.22 348.63, 204.61 343.92, 205.37 336.36 C 206.14 328.80, 206.54 325.03, 207.41 319.29 C 208.28 313.55, 209.03 311.24, 209.72 307.65 C 210.41 304.07, 210.68 303.15, 210.87 301.37 C 211.07 299.59, 211.07 299.43, 210.70 298.75 C 210.32 298.08, 209.80 297.72, 209.01 298.02" style="stroke: black; fill: black;"/><path d="M 304.09,307.31 C 303.60 307.85, 303.50 307.88, 303.37 309.61 C 303.24 311.34, 303.20 312.29, 303.43 315.95 C 303.67 319.62, 304.23 322.33, 304.52 327.95 C 304.82 333.56, 304.86 337.26, 304.93 344.01 C 305.00 350.76, 304.92 354.65, 304.88 361.70 C 304.83 368.74, 304.79 372.46, 304.70 379.24 C 304.61 386.03, 304.50 389.52, 304.43 395.61 C 304.37 401.71, 304.36 404.67, 304.38 409.73 C 304.40 414.79, 304.39 417.09, 304.54 420.90 C 304.70 424.71, 304.66 426.32, 305.17 428.79 C 305.68 431.26, 306.30 431.97, 307.11 433.24 C 307.92 434.50, 308.43 434.75, 309.23 435.13 C 310.03 435.51, 310.60 435.31, 311.11 435.14 C 311.61 434.96, 311.82 434.62, 311.75 434.27 C 311.69 433.92, 311.01 433.58, 310.80 433.40 C 310.59 433.21, 310.70 433.41, 310.70 433.35 C 310.69 433.29, 310.88 433.43, 310.78 433.12 C 310.67 432.80, 310.45 432.80, 310.16 431.77 C 309.87 430.74, 309.72 430.21, 309.32 427.98 C 308.92 425.75, 308.57 424.29, 308.17 420.63 C 307.76 416.96, 307.54 414.66, 307.29 409.65 C 307.05 404.65, 307.01 401.69, 306.97 395.62 C 306.92 389.54, 307.01 386.05, 307.08 379.27 C 307.15 372.49, 307.19 368.77, 307.31 361.73 C 307.44 354.68, 307.56 350.79, 307.71 344.02 C 307.87 337.26, 307.95 333.55, 308.08 327.89 C 308.21 322.23, 308.48 319.48, 308.38 315.73 C 308.27 311.98, 308.06 310.91, 307.54 309.15 C 307.03 307.39, 306.48 307.29, 305.79 306.92 C 305.10 306.55, 304.57 306.77, 304.09 307.31" style="stroke: black; fill: black;"/><path d="M 411.58,290.43 C 410.98 290.70, 410.73 290.63, 410.17 291.95 C 409.60 293.26, 409.10 293.99, 408.76 297.02 C 408.42 300.04, 408.79 302.12, 408.47 307.07 C 408.14 312.02, 407.90 315.30, 407.11 321.78 C 406.33 328.27, 405.74 332.17, 404.55 339.50 C 403.37 346.83, 402.56 351.03, 401.18 358.42 C 399.80 365.80, 399.01 369.73, 397.64 376.42 C 396.27 383.11, 395.45 386.33, 394.32 391.86 C 393.19 397.40, 392.67 399.86, 392.00 404.11 C 391.34 408.35, 390.83 410.01, 390.98 413.10 C 391.14 416.19, 391.58 417.43, 392.78 419.55 C 393.98 421.66, 394.84 422.52, 396.97 423.66 C 399.11 424.80, 400.49 425.29, 403.45 425.26 C 406.42 425.23, 408.15 424.64, 411.80 423.52 C 415.45 422.39, 417.51 421.52, 421.70 419.65 C 425.90 417.77, 428.30 416.50, 432.77 414.16 C 437.25 411.81, 439.75 410.39, 444.08 407.92 C 448.41 405.44, 450.59 404.16, 454.42 401.76 C 458.26 399.37, 460.10 398.15, 463.26 395.93 C 466.42 393.71, 467.85 392.73, 470.21 390.66 C 472.58 388.60, 473.45 387.57, 475.08 385.60 C 476.71 383.63, 477.31 382.67, 478.37 380.81 C 479.43 378.94, 479.77 378.00, 480.37 376.28 C 480.96 374.56, 481.09 373.72, 481.34 372.20 C 481.59 370.69, 481.90 369.94, 481.61 368.71 C 481.32 367.48, 480.87 366.58, 479.89 366.04 C 478.91 365.49, 477.82 365.33, 476.69 365.97 C 475.56 366.62, 474.96 367.21, 474.26 369.28 C 473.56 371.35, 473.48 372.95, 473.19 376.33 C 472.91 379.72, 472.99 382.11, 472.85 386.21 C 472.71 390.30, 472.58 392.70, 472.49 396.79 C 472.41 400.88, 472.37 403.06, 472.42 406.65 C 472.46 410.24, 472.38 411.99, 472.71 414.75 C 473.05 417.50, 473.49 418.66, 474.09 420.44 C 474.68 422.22, 475.11 422.76, 475.68 423.64 C 476.24 424.51, 476.44 424.63, 476.91 424.80 C 477.37 424.98, 477.68 424.89, 478.01 424.52 C 478.33 424.14, 478.42 423.92, 478.51 422.92 C 478.60 421.92, 478.61 421.27, 478.46 419.51 C 478.30 417.76, 478.04 416.74, 477.73 414.14 C 477.42 411.54, 477.07 409.95, 476.89 406.51 C 476.71 403.06, 476.68 400.90, 476.83 396.92 C 476.99 392.94, 477.15 390.56, 477.66 386.59 C 478.18 382.63, 478.84 380.35, 479.39 377.11 C 479.94 373.87, 480.38 372.37, 480.41 370.38 C 480.43 368.38, 480.11 367.81, 479.52 367.13 C 478.94 366.45, 478.12 366.61, 477.49 366.97 C 476.86 367.33, 476.57 368.00, 476.36 368.91 C 476.16 369.82, 476.57 370.36, 476.45 371.53 C 476.33 372.69, 476.19 373.34, 475.74 374.73 C 475.30 376.13, 475.09 376.92, 474.22 378.49 C 473.36 380.07, 472.84 380.85, 471.42 382.62 C 470.01 384.39, 469.24 385.29, 467.15 387.34 C 465.05 389.38, 463.88 390.54, 460.96 392.84 C 458.04 395.14, 456.26 396.41, 452.55 398.84 C 448.84 401.27, 446.69 402.56, 442.41 404.99 C 438.14 407.43, 435.62 408.82, 431.18 411.02 C 426.73 413.22, 424.30 414.40, 420.18 415.97 C 416.06 417.55, 413.95 418.13, 410.56 418.90 C 407.17 419.67, 405.61 419.65, 403.23 419.84 C 400.84 420.04, 400.06 420.29, 398.63 419.87 C 397.20 419.45, 396.78 419.16, 396.07 417.76 C 395.36 416.36, 395.27 415.51, 395.09 412.86 C 394.91 410.21, 394.81 408.60, 395.16 404.49 C 395.52 400.39, 395.93 397.87, 396.89 392.35 C 397.84 386.82, 398.62 383.58, 399.92 376.87 C 401.22 370.17, 401.99 366.23, 403.40 358.84 C 404.80 351.44, 405.62 347.24, 406.94 339.91 C 408.26 332.58, 408.90 328.67, 409.98 322.20 C 411.06 315.73, 411.44 312.46, 412.35 307.56 C 413.27 302.66, 414.16 300.74, 414.54 297.71 C 414.93 294.67, 414.53 293.81, 414.27 292.39 C 414.00 290.97, 413.73 290.99, 413.20 290.60 C 412.66 290.20, 412.19 290.16, 411.58 290.43" style="stroke: black; fill: black;"/><path d="M 483.26,305.79 C 483.83 305.12, 483.98 304.29, 483.66 303.84 C 483.35 303.39, 482.51 303.29, 481.69 303.55 C 480.86 303.82, 480.07 304.52, 479.55 305.18 C 479.03 305.85, 478.83 306.49, 479.09 306.90 C 479.34 307.30, 479.99 307.44, 480.82 307.22 C 481.66 306.99, 482.69 306.47, 483.26 305.79" style="stroke: black; fill: black;"/><path d="M 516.16,288.53 C 515.61 289.03, 515.53 289.30, 515.27 290.78 C 515.02 292.26, 514.79 292.94, 514.90 295.92 C 515.01 298.89, 515.65 300.95, 515.83 305.66 C 516.01 310.37, 515.99 313.35, 515.81 319.48 C 515.63 325.61, 515.43 329.34, 514.93 336.32 C 514.43 343.31, 513.97 347.29, 513.29 354.39 C 512.62 361.49, 512.31 365.26, 511.53 371.81 C 510.76 378.35, 510.23 381.68, 509.42 387.13 C 508.61 392.59, 508.20 395.16, 507.47 399.10 C 506.75 403.03, 505.98 404.54, 505.80 406.82 C 505.62 409.10, 505.94 409.95, 506.58 410.49 C 507.21 411.04, 508.08 410.95, 508.98 409.52 C 509.89 408.09, 510.29 406.75, 511.11 403.35 C 511.94 399.94, 511.97 397.32, 513.12 392.48 C 514.27 387.63, 515.02 384.43, 516.86 379.12 C 518.70 373.80, 519.89 370.70, 522.34 365.91 C 524.79 361.12, 526.28 358.78, 529.10 355.18 C 531.92 351.57, 533.58 350.08, 536.44 347.89 C 539.30 345.70, 540.89 345.06, 543.41 344.21 C 545.92 343.35, 547.02 343.21, 549.02 343.61 C 551.02 344.00, 551.74 344.53, 553.40 346.18 C 555.06 347.83, 556.00 349.00, 557.32 351.87 C 558.63 354.73, 559.33 356.68, 559.99 360.51 C 560.66 364.33, 560.84 366.68, 560.64 370.99 C 560.45 375.30, 560.02 377.76, 559.00 382.06 C 557.99 386.36, 557.29 388.62, 555.58 392.48 C 553.87 396.34, 552.76 398.25, 550.45 401.35 C 548.14 404.46, 546.68 405.80, 544.02 408.00 C 541.36 410.21, 539.88 411.12, 537.16 412.38 C 534.43 413.65, 533.01 414.03, 530.40 414.33 C 527.78 414.63, 526.42 414.47, 524.09 413.88 C 521.76 413.30, 520.65 412.78, 518.76 411.42 C 516.87 410.06, 515.97 409.07, 514.63 407.07 C 513.29 405.08, 512.72 403.77, 512.07 401.44 C 511.41 399.11, 511.52 397.74, 511.35 395.44 C 511.17 393.13, 511.71 391.11, 511.20 389.90 C 510.70 388.69, 509.84 388.32, 508.83 389.37 C 507.82 390.41, 506.59 392.43, 506.14 395.14 C 505.68 397.86, 505.76 399.93, 506.55 402.94 C 507.35 405.96, 508.28 407.66, 510.12 410.22 C 511.97 412.78, 513.21 413.99, 515.77 415.72 C 518.33 417.45, 519.86 418.20, 522.92 418.88 C 525.98 419.56, 527.82 419.63, 531.06 419.12 C 534.30 418.62, 535.99 417.96, 539.11 416.35 C 542.23 414.74, 543.79 413.63, 546.66 411.07 C 549.54 408.51, 551.05 406.99, 553.49 403.56 C 555.93 400.13, 557.07 398.06, 558.87 393.93 C 560.67 389.80, 561.39 387.45, 562.50 382.90 C 563.62 378.36, 564.11 375.82, 564.43 371.22 C 564.76 366.61, 564.71 364.12, 564.14 359.88 C 563.57 355.63, 563.08 353.43, 561.60 349.97 C 560.12 346.52, 559.12 344.74, 556.75 342.61 C 554.39 340.49, 552.74 339.82, 549.78 339.33 C 546.83 338.84, 545.10 339.02, 541.97 340.17 C 538.85 341.32, 537.24 342.45, 534.16 345.06 C 531.07 347.68, 529.47 349.34, 526.56 353.23 C 523.65 357.12, 522.17 359.56, 519.61 364.51 C 517.05 369.46, 515.86 372.61, 513.77 377.98 C 511.69 383.36, 510.76 386.54, 509.19 391.37 C 507.63 396.21, 506.70 398.67, 505.94 402.16 C 505.19 405.65, 505.11 407.12, 505.42 408.84 C 505.72 410.55, 506.60 410.98, 507.45 410.73 C 508.30 410.47, 508.97 409.78, 509.65 407.56 C 510.34 405.34, 510.37 403.63, 510.87 399.62 C 511.36 395.60, 511.51 392.99, 512.13 387.49 C 512.74 381.98, 513.24 378.65, 513.94 372.08 C 514.65 365.50, 514.95 361.73, 515.66 354.62 C 516.36 347.51, 516.83 343.53, 517.47 336.53 C 518.11 329.54, 518.36 325.80, 518.84 319.64 C 519.32 313.49, 519.49 310.52, 519.87 305.74 C 520.25 300.96, 520.80 298.81, 520.72 295.74 C 520.65 292.67, 520.04 291.87, 519.50 290.38 C 518.96 288.89, 518.71 288.65, 518.04 288.28 C 517.37 287.91, 516.72 288.03, 516.16 288.53" style="stroke: black; fill: black;"/><path d="M 581.77,344.62 C 580.97 345.51, 580.39 346.53, 579.88 349.30 C 579.37 352.08, 579.54 354.07, 579.21 358.51 C 578.88 362.95, 578.66 365.98, 578.24 371.50 C 577.81 377.02, 577.64 380.46, 577.09 386.10 C 576.53 391.74, 576.07 394.75, 575.45 399.69 C 574.83 404.63, 574.35 407.15, 573.98 410.79 C 573.61 414.43, 573.32 416.09, 573.58 417.89 C 573.85 419.69, 574.59 420.10, 575.31 419.80 C 576.04 419.51, 576.89 418.82, 577.21 416.41 C 577.53 413.99, 576.96 412.07, 576.89 407.74 C 576.82 403.40, 576.54 400.31, 576.86 394.73 C 577.19 389.15, 577.51 385.72, 578.51 379.85 C 579.51 373.97, 580.26 370.62, 581.86 365.35 C 583.46 360.09, 584.54 357.53, 586.51 353.53 C 588.48 349.53, 589.67 347.98, 591.73 345.36 C 593.78 342.75, 594.83 342.00, 596.78 340.46 C 598.73 338.92, 599.71 338.50, 601.49 337.67 C 603.27 336.84, 604.27 336.73, 605.68 336.31 C 607.08 335.88, 607.69 335.80, 608.52 335.54 C 609.35 335.28, 609.51 335.23, 609.82 335.01 C 610.12 334.79, 609.96 334.59, 610.03 334.43 C 610.10 334.26, 609.94 334.20, 610.17 334.19 C 610.40 334.18, 610.93 334.53, 611.19 334.38 C 611.44 334.22, 611.60 333.91, 611.45 333.43 C 611.29 332.95, 611.08 332.39, 610.42 331.98 C 609.75 331.56, 609.31 331.41, 608.12 331.35 C 606.92 331.29, 606.18 331.25, 604.44 331.66 C 602.70 332.07, 601.53 332.34, 599.41 333.41 C 597.30 334.48, 596.00 335.07, 593.86 337.02 C 591.71 338.96, 590.73 340.12, 588.68 343.14 C 586.63 346.17, 585.53 347.89, 583.61 352.16 C 581.68 356.44, 580.66 359.08, 579.05 364.51 C 577.44 369.94, 576.70 373.33, 575.56 379.32 C 574.43 385.30, 574.03 388.76, 573.37 394.43 C 572.72 400.10, 572.52 403.23, 572.30 407.66 C 572.08 412.09, 571.80 414.09, 572.27 416.56 C 572.73 419.03, 573.70 419.68, 574.63 420.02 C 575.56 420.36, 576.24 420.03, 576.91 418.26 C 577.58 416.50, 577.61 414.83, 577.97 411.19 C 578.33 407.54, 578.24 404.99, 578.69 400.04 C 579.14 395.09, 579.61 392.06, 580.22 386.42 C 580.83 380.78, 581.10 377.33, 581.73 371.83 C 582.36 366.34, 582.76 363.35, 583.36 358.95 C 583.96 354.55, 584.61 352.66, 584.72 349.84 C 584.83 347.02, 584.49 345.90, 583.90 344.85 C 583.31 343.81, 582.58 343.73, 581.77 344.62" style="stroke: black; fill: black;"/><path d="M 643.30,342.02 C 643.26 341.05, 642.73 340.15, 641.65 339.25 C 640.56 338.35, 639.69 337.89, 637.86 337.53 C 636.02 337.17, 634.78 336.80, 632.46 337.45 C 630.15 338.10, 628.70 338.50, 626.29 340.79 C 623.87 343.07, 622.81 344.84, 620.39 348.87 C 617.97 352.90, 616.58 355.52, 614.20 360.92 C 611.83 366.33, 610.49 369.85, 608.50 375.90 C 606.52 381.94, 605.54 385.48, 604.27 391.16 C 603.01 396.83, 602.54 399.75, 602.18 404.27 C 601.82 408.80, 601.68 410.79, 602.46 413.78 C 603.23 416.77, 604.25 417.83, 606.06 419.22 C 607.87 420.60, 609.18 420.95, 611.52 420.71 C 613.87 420.47, 615.45 420.02, 617.79 418.02 C 620.13 416.03, 621.06 414.24, 623.23 410.74 C 625.39 407.24, 626.47 405.11, 628.62 400.52 C 630.76 395.92, 631.91 393.01, 633.95 387.75 C 636.00 382.50, 637.08 379.31, 638.84 374.25 C 640.61 369.18, 641.54 366.40, 642.78 362.44 C 644.03 358.48, 644.78 356.63, 645.07 354.43 C 645.36 352.24, 644.81 351.42, 644.24 351.47 C 643.67 351.52, 642.67 352.18, 642.23 354.69 C 641.79 357.20, 642.09 359.42, 642.05 364.02 C 642.02 368.62, 642.09 371.90, 642.05 377.71 C 642.01 383.51, 641.89 387.13, 641.84 393.06 C 641.79 398.99, 641.76 402.30, 641.80 407.36 C 641.84 412.43, 641.65 414.75, 642.04 418.38 C 642.43 422.01, 642.65 423.49, 643.74 425.51 C 644.82 427.53, 645.70 428.33, 647.45 428.49 C 649.20 428.65, 650.76 427.91, 652.50 426.32 C 654.24 424.73, 655.36 422.99, 656.13 420.53 C 656.89 418.08, 656.86 415.55, 656.31 414.04 C 655.75 412.54, 654.68 412.24, 653.34 413.02 C 651.99 413.80, 650.61 415.86, 649.58 417.95 C 648.55 420.03, 648.60 421.78, 648.18 423.44 C 647.75 425.11, 647.68 426.10, 647.44 426.26 C 647.21 426.43, 647.33 425.93, 647.01 424.27 C 646.70 422.61, 646.27 421.35, 645.86 417.95 C 645.46 414.55, 645.18 412.26, 644.99 407.29 C 644.79 402.32, 644.79 398.99, 644.90 393.10 C 645.01 387.20, 645.21 383.59, 645.51 377.81 C 645.81 372.02, 646.11 368.78, 646.40 364.17 C 646.69 359.56, 647.33 357.40, 646.96 354.75 C 646.60 352.11, 645.67 351.26, 644.57 350.97 C 643.48 350.67, 642.57 351.20, 641.49 353.28 C 640.41 355.36, 640.32 357.37, 639.17 361.36 C 638.03 365.34, 637.42 368.17, 635.77 373.21 C 634.13 378.25, 633.03 381.42, 630.95 386.56 C 628.86 391.69, 627.64 394.57, 625.35 398.89 C 623.06 403.22, 621.75 405.20, 619.50 408.20 C 617.24 411.21, 615.83 412.18, 614.06 413.93 C 612.30 415.67, 611.86 416.37, 610.67 416.93 C 609.48 417.50, 608.97 417.56, 608.13 416.73 C 607.29 415.91, 607.00 415.28, 606.47 412.82 C 605.94 410.37, 605.35 408.67, 605.48 404.46 C 605.61 400.25, 605.97 397.30, 607.12 391.77 C 608.27 386.24, 609.24 382.71, 611.25 376.81 C 613.25 370.92, 614.65 367.43, 617.15 362.28 C 619.64 357.14, 621.19 354.58, 623.74 351.09 C 626.29 347.59, 627.89 346.52, 629.91 344.80 C 631.93 343.07, 632.51 342.83, 633.86 342.46 C 635.21 342.10, 635.59 342.67, 636.65 342.96 C 637.72 343.24, 638.16 343.65, 639.20 343.88 C 640.24 344.11, 641.05 344.47, 641.87 344.10 C 642.69 343.72, 643.35 342.99, 643.30 342.02" style="stroke: black; fill: black;"/><path d="M 668.87,356.02 C 668.17 357.02, 667.74 358.16, 667.54 360.96 C 667.34 363.77, 667.73 365.71, 667.87 370.03 C 668.01 374.36, 668.14 377.41, 668.24 382.61 C 668.35 387.80, 668.42 390.88, 668.40 396.03 C 668.38 401.17, 668.30 404.02, 668.13 408.32 C 667.96 412.62, 667.43 414.67, 667.56 417.54 C 667.69 420.41, 668.07 421.51, 668.76 422.65 C 669.44 423.80, 670.09 423.98, 670.99 423.26 C 671.88 422.55, 672.89 421.72, 673.23 419.07 C 673.58 416.42, 672.84 414.36, 672.72 410.01 C 672.61 405.66, 672.46 402.74, 672.66 397.33 C 672.86 391.92, 672.97 388.54, 673.71 382.96 C 674.46 377.39, 675.07 374.27, 676.38 369.44 C 677.68 364.61, 678.59 362.31, 680.25 358.81 C 681.92 355.30, 682.96 354.11, 684.70 351.92 C 686.45 349.72, 687.27 349.05, 688.98 347.83 C 690.69 346.61, 691.53 346.33, 693.25 345.80 C 694.98 345.27, 695.90 345.41, 697.60 345.17 C 699.30 344.94, 700.30 345.00, 701.74 344.62 C 703.18 344.25, 704.19 343.98, 704.80 343.29 C 705.41 342.61, 705.43 341.87, 704.78 341.19 C 704.13 340.52, 703.13 340.17, 701.55 339.92 C 699.96 339.67, 698.84 339.64, 696.86 339.93 C 694.87 340.21, 693.73 340.47, 691.62 341.35 C 689.51 342.22, 688.39 342.69, 686.33 344.29 C 684.27 345.90, 683.18 346.77, 681.32 349.39 C 679.47 352.00, 678.64 353.53, 677.04 357.38 C 675.43 361.23, 674.60 363.60, 673.32 368.63 C 672.03 373.66, 671.44 376.83, 670.60 382.53 C 669.76 388.22, 669.62 391.62, 669.10 397.09 C 668.58 402.57, 668.33 405.52, 667.99 409.89 C 667.66 414.26, 667.18 416.31, 667.42 418.95 C 667.67 421.60, 668.43 422.38, 669.20 423.11 C 669.97 423.83, 670.63 423.71, 671.26 422.59 C 671.89 421.47, 672.24 420.38, 672.35 417.53 C 672.46 414.68, 671.93 412.65, 671.83 408.35 C 671.72 404.05, 671.81 401.19, 671.84 396.04 C 671.86 390.89, 671.89 387.80, 671.96 382.59 C 672.03 377.39, 672.09 374.35, 672.19 370.02 C 672.30 365.69, 672.70 363.74, 672.47 360.94 C 672.24 358.14, 671.76 356.98, 671.04 356.00 C 670.32 355.02, 669.57 355.03, 668.87 356.02" style="stroke: black; fill: black;"/><path d="M 720.73,341.03 C 720.12 341.48, 719.86 341.70, 719.54 343.15 C 719.21 344.61, 718.83 345.64, 719.12 348.32 C 719.41 351.01, 720.20 352.76, 720.97 356.58 C 721.75 360.39, 722.20 362.94, 723.01 367.40 C 723.82 371.85, 724.30 374.48, 725.02 378.86 C 725.74 383.24, 725.92 385.48, 726.60 389.31 C 727.29 393.13, 727.45 395.05, 728.44 397.98 C 729.43 400.91, 730.05 402.17, 731.56 403.96 C 733.07 405.74, 734.06 406.44, 735.99 406.90 C 737.93 407.37, 739.16 407.27, 741.25 406.27 C 743.34 405.27, 744.50 404.47, 746.46 401.92 C 748.42 399.38, 749.08 397.49, 751.06 393.57 C 753.05 389.64, 754.18 387.17, 756.39 382.29 C 758.61 377.42, 759.85 374.32, 762.14 369.17 C 764.43 364.02, 765.67 361.00, 767.83 356.55 C 770.00 352.11, 771.43 350.03, 772.95 346.95 C 774.48 343.88, 775.12 342.50, 775.47 341.19 C 775.81 339.88, 775.13 339.48, 774.69 340.40 C 774.25 341.32, 773.77 342.34, 773.27 345.78 C 772.77 349.22, 772.95 351.80, 772.18 357.61 C 771.42 363.42, 770.85 367.28, 769.45 374.84 C 768.04 382.41, 767.07 386.90, 765.17 395.44 C 763.28 403.99, 762.10 408.74, 759.95 417.58 C 757.80 426.43, 756.61 431.14, 754.44 439.67 C 752.26 448.20, 751.15 452.54, 749.07 460.22 C 746.99 467.90, 745.98 471.66, 744.04 478.08 C 742.10 484.50, 741.15 487.52, 739.35 492.32 C 737.55 497.12, 736.51 499.01, 735.05 502.09 C 733.59 505.16, 732.85 506.20, 732.06 507.71 C 731.26 509.22, 731.12 509.81, 731.06 509.63 C 731.00 509.45, 731.54 508.48, 731.74 506.80 C 731.95 505.11, 732.39 503.40, 732.08 501.20 C 731.77 499.00, 731.18 496.89, 730.19 495.80 C 729.20 494.71, 728.15 494.61, 727.13 495.75 C 726.10 496.90, 725.17 499.08, 725.08 501.53 C 724.99 503.98, 725.59 505.99, 726.66 507.99 C 727.73 510.00, 728.81 511.19, 730.44 511.56 C 732.06 511.92, 733.22 511.40, 734.79 509.80 C 736.37 508.20, 736.89 506.87, 738.31 503.55 C 739.73 500.23, 740.32 498.16, 741.89 493.19 C 743.46 488.22, 744.34 485.19, 746.15 478.70 C 747.96 472.20, 748.93 468.43, 750.94 460.72 C 752.95 453.00, 754.05 448.66, 756.21 440.12 C 758.37 431.58, 759.56 426.87, 761.74 418.02 C 763.93 409.18, 765.13 404.43, 767.15 395.90 C 769.17 387.36, 770.18 382.88, 771.85 375.33 C 773.53 367.79, 774.33 363.98, 775.51 358.16 C 776.69 352.35, 777.48 349.90, 777.75 346.27 C 778.01 342.63, 777.71 341.34, 776.84 339.99 C 775.96 338.64, 774.89 338.50, 773.38 339.51 C 771.87 340.52, 771.00 341.91, 769.29 345.04 C 767.57 348.16, 766.81 350.58, 764.79 355.14 C 762.78 359.71, 761.53 362.73, 759.21 367.86 C 756.90 372.99, 755.61 376.06, 753.23 380.78 C 750.86 385.51, 749.56 387.91, 747.33 391.46 C 745.10 395.02, 743.78 396.34, 742.08 398.55 C 740.38 400.75, 739.91 401.48, 738.85 402.49 C 737.79 403.49, 737.57 403.76, 736.79 403.57 C 736.01 403.38, 735.71 402.98, 734.94 401.55 C 734.18 400.13, 733.83 399.07, 732.96 396.46 C 732.09 393.85, 731.41 392.15, 730.59 388.50 C 729.77 384.86, 729.55 382.59, 728.86 378.24 C 728.17 373.89, 727.70 371.24, 727.14 366.76 C 726.58 362.29, 726.34 359.73, 726.05 355.87 C 725.75 352.01, 726.07 350.10, 725.66 347.46 C 725.24 344.82, 724.60 343.98, 723.98 342.67 C 723.35 341.36, 723.19 341.24, 722.54 340.92 C 721.89 340.59, 721.33 340.58, 720.73 341.03" style="stroke: black; fill: black;"/><path d="M 891.36,346.27 C 891.41 345.35, 891.05 344.45, 890.03 343.53 C 889.01 342.60, 888.13 342.04, 886.24 341.65 C 884.35 341.27, 883.02 340.94, 880.58 341.62 C 878.13 342.29, 876.71 342.84, 874.02 345.03 C 871.33 347.22, 869.98 348.64, 867.12 352.58 C 864.26 356.52, 862.58 359.12, 859.70 364.75 C 856.82 370.38, 855.16 374.05, 852.72 380.73 C 850.29 387.40, 849.08 391.47, 847.52 398.11 C 845.95 404.75, 845.44 408.46, 844.90 413.95 C 844.35 419.43, 844.21 421.82, 844.81 425.55 C 845.41 429.29, 846.12 430.64, 847.90 432.61 C 849.69 434.59, 851.18 435.22, 853.74 435.41 C 856.30 435.60, 858.06 435.37, 860.71 433.57 C 863.35 431.76, 864.43 430.09, 866.98 426.39 C 869.54 422.69, 870.82 420.45, 873.50 415.07 C 876.17 409.68, 877.60 406.37, 880.36 399.46 C 883.11 392.55, 884.54 388.36, 887.25 380.53 C 889.95 372.70, 891.38 368.23, 893.88 360.30 C 896.38 352.37, 897.63 348.11, 899.74 340.89 C 901.86 333.67, 902.81 330.02, 904.44 324.20 C 906.07 318.38, 906.97 315.79, 907.90 311.80 C 908.83 307.82, 909.28 306.35, 909.09 304.28 C 908.89 302.22, 908.11 301.58, 906.92 301.49 C 905.73 301.41, 904.37 301.77, 903.15 303.86 C 901.94 305.95, 901.67 307.67, 900.82 311.92 C 899.97 316.16, 899.70 318.99, 898.90 325.08 C 898.10 331.17, 897.60 335.03, 896.81 342.37 C 896.02 349.70, 895.57 353.99, 894.96 361.76 C 894.36 369.53, 894.05 373.85, 893.77 381.24 C 893.50 388.62, 893.47 392.39, 893.61 398.68 C 893.75 404.97, 893.91 407.81, 894.49 412.71 C 895.07 417.61, 895.39 419.81, 896.51 423.17 C 897.62 426.53, 898.37 427.78, 900.06 429.51 C 901.74 431.23, 902.81 431.66, 904.94 431.81 C 907.06 431.96, 908.49 431.73, 910.67 430.24 C 912.85 428.75, 913.81 427.53, 915.83 424.36 C 917.86 421.19, 918.74 419.04, 920.80 414.38 C 922.86 409.73, 924.03 406.92, 926.13 401.09 C 928.24 395.26, 929.39 391.60, 931.33 385.23 C 933.27 378.87, 934.24 375.16, 935.85 369.24 C 937.45 363.33, 938.26 360.28, 939.35 355.64 C 940.44 351.00, 941.18 349.08, 941.31 346.06 C 941.43 343.03, 940.99 341.91, 939.97 340.50 C 938.96 339.09, 937.98 338.63, 936.23 339.00 C 934.49 339.36, 933.03 339.82, 931.25 342.32 C 929.46 344.81, 928.89 346.89, 927.31 351.48 C 925.73 356.07, 924.73 359.13, 923.35 365.26 C 921.97 371.39, 921.30 375.40, 920.40 382.11 C 919.50 388.83, 919.08 392.66, 918.87 398.82 C 918.66 404.98, 918.68 407.98, 919.34 412.92 C 920.00 417.86, 920.50 420.11, 922.16 423.51 C 923.82 426.90, 925.03 428.26, 927.65 429.90 C 930.26 431.54, 932.06 431.91, 935.23 431.72 C 938.39 431.52, 940.25 430.80, 943.47 428.92 C 946.69 427.04, 948.27 425.63, 951.32 422.32 C 954.37 419.02, 955.80 416.86, 958.70 412.38 C 961.61 407.90, 963.07 405.23, 965.83 399.92 C 968.58 394.61, 970.06 391.42, 972.46 385.84 C 974.87 380.27, 975.97 377.06, 977.85 372.05 C 979.74 367.04, 980.62 364.57, 981.88 360.78 C 983.13 356.99, 983.85 355.32, 984.14 353.11 C 984.42 350.89, 983.92 350.07, 983.28 349.71 C 982.65 349.34, 981.74 349.48, 980.98 351.28 C 980.22 353.07, 979.98 354.71, 979.47 358.67 C 978.97 362.62, 978.92 365.55, 978.45 371.06 C 977.97 376.57, 977.66 380.16, 977.10 386.20 C 976.54 392.24, 976.14 395.71, 975.64 401.25 C 975.14 406.80, 974.97 409.64, 974.60 413.92 C 974.24 418.20, 973.68 420.03, 973.82 422.67 C 973.95 425.30, 974.45 426.23, 975.27 427.09 C 976.10 427.95, 976.95 428.05, 977.94 426.97 C 978.93 425.90, 979.65 424.96, 980.21 421.71 C 980.77 418.46, 980.29 415.94, 980.74 410.72 C 981.19 405.49, 981.35 401.93, 982.45 395.59 C 983.56 389.25, 984.42 385.27, 986.26 379.02 C 988.10 372.76, 989.33 369.26, 991.65 364.32 C 993.97 359.37, 995.44 357.29, 997.86 354.30 C 1000.28 351.32, 1001.84 350.60, 1003.77 349.39 C 1005.70 348.18, 1006.32 347.80, 1007.51 348.25 C 1008.71 348.70, 1008.73 349.31, 1009.75 351.64 C 1010.76 353.97, 1011.68 355.71, 1012.57 359.90 C 1013.46 364.10, 1013.81 367.18, 1014.20 372.63 C 1014.58 378.08, 1014.59 381.54, 1014.48 387.16 C 1014.38 392.78, 1014.14 395.98, 1013.67 400.72 C 1013.20 405.46, 1012.41 407.65, 1012.15 410.86 C 1011.89 414.07, 1011.86 415.35, 1012.38 416.77 C 1012.90 418.19, 1013.66 418.62, 1014.75 417.97 C 1015.84 417.32, 1016.80 416.51, 1017.82 413.52 C 1018.84 410.53, 1018.72 408.01, 1019.84 403.00 C 1020.97 397.98, 1021.58 394.54, 1023.44 388.44 C 1025.29 382.34, 1026.62 378.44, 1029.10 372.51 C 1031.59 366.58, 1033.18 363.27, 1035.87 358.79 C 1038.56 354.31, 1040.19 352.53, 1042.54 350.11 C 1044.88 347.69, 1046.07 347.19, 1047.61 346.69 C 1049.14 346.20, 1049.36 346.29, 1050.20 347.63 C 1051.05 348.97, 1051.22 350.08, 1051.81 353.39 C 1052.40 356.69, 1052.88 359.14, 1053.17 364.16 C 1053.46 369.17, 1053.39 372.55, 1053.25 378.47 C 1053.12 384.38, 1052.82 387.95, 1052.52 393.72 C 1052.22 399.50, 1051.98 402.51, 1051.76 407.35 C 1051.54 412.18, 1051.25 414.41, 1051.43 417.91 C 1051.60 421.40, 1051.95 422.74, 1052.63 424.81 C 1053.31 426.89, 1053.95 427.38, 1054.84 428.29 C 1055.73 429.20, 1056.19 429.26, 1057.06 429.36 C 1057.93 429.47, 1058.51 429.21, 1059.20 428.81 C 1059.90 428.41, 1060.46 427.88, 1060.55 427.38 C 1060.65 426.87, 1060.39 426.51, 1059.67 426.27 C 1058.94 426.04, 1057.67 426.11, 1056.94 426.22 C 1056.21 426.32, 1056.01 426.63, 1056.02 426.79 C 1056.02 426.95, 1056.66 426.93, 1056.97 427.02 C 1057.28 427.11, 1057.49 427.33, 1057.55 427.25 C 1057.61 427.16, 1057.50 427.29, 1057.27 426.59 C 1057.04 425.90, 1056.78 425.56, 1056.40 423.77 C 1056.01 421.98, 1055.64 420.91, 1055.35 417.64 C 1055.07 414.37, 1054.95 412.19, 1054.98 407.43 C 1055.02 402.68, 1055.23 399.65, 1055.51 393.87 C 1055.80 388.10, 1056.14 384.54, 1056.42 378.57 C 1056.69 372.60, 1056.94 369.24, 1056.89 364.03 C 1056.83 358.82, 1056.94 356.26, 1056.14 352.53 C 1055.33 348.79, 1054.71 347.14, 1052.86 345.35 C 1051.01 343.55, 1049.44 343.09, 1046.87 343.55 C 1044.31 344.01, 1042.74 344.90, 1040.03 347.65 C 1037.32 350.41, 1036.02 352.55, 1033.32 357.31 C 1030.62 362.06, 1029.09 365.39, 1026.53 371.43 C 1023.97 377.46, 1022.62 381.38, 1020.51 387.49 C 1018.40 393.59, 1017.52 397.02, 1015.97 401.96 C 1014.43 406.90, 1013.37 409.12, 1012.78 412.18 C 1012.20 415.24, 1012.62 416.32, 1013.04 417.26 C 1013.47 418.21, 1014.25 418.11, 1014.93 416.92 C 1015.60 415.73, 1016.00 414.51, 1016.43 411.32 C 1016.85 408.13, 1016.80 405.79, 1017.04 400.97 C 1017.29 396.15, 1017.54 392.93, 1017.67 387.23 C 1017.79 381.52, 1017.87 378.06, 1017.65 372.44 C 1017.43 366.83, 1017.31 363.74, 1016.56 359.16 C 1015.82 354.57, 1015.53 352.31, 1013.91 349.51 C 1012.30 346.71, 1010.91 345.86, 1008.50 345.16 C 1006.08 344.46, 1004.48 344.59, 1001.83 346.02 C 999.18 347.44, 997.80 348.85, 995.25 352.27 C 992.70 355.70, 991.40 357.95, 989.08 363.14 C 986.76 368.33, 985.56 371.86, 983.65 378.24 C 981.73 384.62, 980.86 388.63, 979.50 395.02 C 978.13 401.41, 977.75 405.01, 976.83 410.21 C 975.91 415.40, 975.22 417.79, 974.92 421.01 C 974.62 424.23, 974.92 425.15, 975.34 426.31 C 975.76 427.47, 976.45 427.52, 977.01 426.80 C 977.58 426.09, 977.95 425.27, 978.17 422.73 C 978.38 420.20, 977.98 418.36, 978.08 414.11 C 978.18 409.86, 978.25 407.02, 978.67 401.51 C 979.09 395.99, 979.48 392.52, 980.18 386.52 C 980.88 380.52, 981.33 376.94, 982.15 371.50 C 982.97 366.05, 983.71 363.26, 984.27 359.31 C 984.83 355.37, 985.24 353.76, 984.95 351.78 C 984.66 349.79, 983.74 349.35, 982.83 349.41 C 981.92 349.47, 981.28 350.02, 980.39 352.08 C 979.50 354.14, 979.46 355.91, 978.38 359.70 C 977.30 363.49, 976.71 366.02, 975.00 371.03 C 973.29 376.03, 972.20 379.22, 969.84 384.72 C 967.49 390.22, 966.00 393.38, 963.22 398.55 C 960.45 403.71, 958.91 406.33, 955.97 410.55 C 953.03 414.76, 951.47 416.73, 948.53 419.63 C 945.58 422.52, 943.99 423.51, 941.25 425.02 C 938.51 426.52, 937.13 426.86, 934.82 427.15 C 932.51 427.45, 931.58 427.53, 929.68 426.48 C 927.79 425.43, 926.81 424.70, 925.33 421.90 C 923.86 419.10, 923.05 417.08, 922.29 412.48 C 921.54 407.88, 921.41 404.90, 921.57 398.90 C 921.73 392.90, 922.15 389.07, 923.11 382.49 C 924.08 375.92, 924.79 371.92, 926.39 366.02 C 927.99 360.12, 929.22 357.14, 931.11 352.99 C 933.00 348.84, 934.59 347.57, 935.86 345.25 C 937.14 342.93, 937.12 342.13, 937.49 341.37 C 937.87 340.61, 937.79 340.56, 937.73 341.43 C 937.67 342.31, 937.49 343.04, 937.19 345.76 C 936.90 348.47, 937.06 350.45, 936.26 355.01 C 935.46 359.56, 934.69 362.66, 933.19 368.55 C 931.69 374.43, 930.72 378.14, 928.75 384.44 C 926.78 390.73, 925.59 394.36, 923.34 400.03 C 921.10 405.70, 919.81 408.46, 917.52 412.79 C 915.22 417.12, 913.84 418.94, 911.87 421.68 C 909.91 424.42, 909.06 425.13, 907.68 426.49 C 906.29 427.86, 905.94 428.36, 904.95 428.49 C 903.96 428.62, 903.72 428.46, 902.73 427.15 C 901.75 425.84, 901.11 424.92, 900.03 421.95 C 898.95 418.98, 898.14 416.97, 897.34 412.30 C 896.53 407.63, 896.29 404.80, 896.02 398.60 C 895.76 392.40, 895.76 388.64, 896.00 381.31 C 896.23 373.98, 896.53 369.67, 897.20 361.94 C 897.86 354.21, 898.33 349.94, 899.30 342.67 C 900.27 335.40, 900.87 331.55, 902.04 325.60 C 903.20 319.65, 904.05 316.94, 905.12 312.92 C 906.20 308.90, 907.01 307.61, 907.41 305.51 C 907.81 303.41, 907.41 302.72, 907.13 302.42 C 906.85 302.13, 906.50 302.32, 906.02 304.05 C 905.54 305.79, 905.53 307.21, 904.73 311.11 C 903.94 315.02, 903.46 317.74, 902.06 323.58 C 900.65 329.42, 899.73 333.09, 897.70 340.31 C 895.68 347.53, 894.43 351.79, 891.94 359.69 C 889.45 367.59, 888.00 372.06, 885.24 379.82 C 882.47 387.59, 880.99 391.77, 878.10 398.53 C 875.22 405.30, 873.68 408.56, 870.83 413.66 C 867.97 418.76, 866.44 420.85, 863.83 424.03 C 861.23 427.20, 859.83 428.00, 857.82 429.54 C 855.81 431.07, 855.24 431.53, 853.77 431.70 C 852.30 431.86, 851.59 431.70, 850.48 430.36 C 849.36 429.02, 848.74 428.23, 848.19 424.99 C 847.63 421.76, 847.34 419.44, 847.70 414.18 C 848.06 408.92, 848.51 405.20, 850.00 398.69 C 851.49 392.18, 852.70 388.14, 855.16 381.64 C 857.63 375.13, 859.35 371.50, 862.33 366.16 C 865.32 360.82, 867.12 358.31, 870.07 354.92 C 873.02 351.52, 874.70 350.75, 877.09 349.18 C 879.48 347.60, 880.38 347.44, 882.01 347.04 C 883.64 346.65, 884.14 347.03, 885.24 347.19 C 886.35 347.35, 886.64 347.66, 887.55 347.84 C 888.45 348.03, 889.02 348.45, 889.78 348.13 C 890.54 347.81, 891.31 347.19, 891.36 346.27" style="stroke: black; fill: black;"/><path d="M 1110.13,350.69 C 1110.84 350.10, 1111.37 349.26, 1111.15 348.14 C 1110.93 347.02, 1110.32 345.96, 1109.01 345.09 C 1107.71 344.22, 1106.68 343.57, 1104.65 343.78 C 1102.61 344.00, 1101.16 344.22, 1098.85 346.17 C 1096.54 348.12, 1095.63 349.80, 1093.10 353.55 C 1090.57 357.29, 1088.91 359.69, 1086.19 364.89 C 1083.46 370.08, 1081.84 373.44, 1079.49 379.53 C 1077.13 385.61, 1075.92 389.28, 1074.41 395.33 C 1072.89 401.38, 1072.30 404.64, 1071.91 409.80 C 1071.51 414.95, 1071.62 417.31, 1072.41 421.09 C 1073.20 424.87, 1073.96 426.49, 1075.86 428.71 C 1077.77 430.93, 1079.25 431.59, 1081.94 432.18 C 1084.63 432.78, 1086.39 432.83, 1089.30 431.69 C 1092.22 430.54, 1093.69 429.26, 1096.50 426.47 C 1099.31 423.67, 1100.71 421.88, 1103.35 417.72 C 1105.98 413.57, 1107.40 410.94, 1109.68 405.70 C 1111.96 400.46, 1113.08 397.24, 1114.74 391.53 C 1116.41 385.83, 1117.07 382.59, 1118.00 377.17 C 1118.93 371.76, 1119.25 369.03, 1119.39 364.47 C 1119.54 359.91, 1119.43 357.79, 1118.73 354.38 C 1118.04 350.97, 1117.31 349.59, 1115.92 347.42 C 1114.53 345.24, 1113.38 344.48, 1111.77 343.50 C 1110.17 342.52, 1109.12 342.51, 1107.89 342.53 C 1106.66 342.55, 1106.03 343.08, 1105.62 343.62 C 1105.21 344.15, 1105.49 344.78, 1105.84 345.21 C 1106.19 345.64, 1106.64 345.43, 1107.36 345.77 C 1108.08 346.11, 1108.46 346.12, 1109.45 346.91 C 1110.44 347.71, 1111.24 348.06, 1112.31 349.73 C 1113.38 351.40, 1114.06 352.33, 1114.81 355.27 C 1115.56 358.21, 1116.02 360.15, 1116.06 364.43 C 1116.11 368.72, 1115.88 371.43, 1115.05 376.69 C 1114.22 381.94, 1113.56 385.16, 1111.91 390.70 C 1110.26 396.24, 1109.11 399.40, 1106.79 404.40 C 1104.47 409.40, 1102.96 411.91, 1100.29 415.68 C 1097.63 419.44, 1096.05 420.95, 1093.46 423.22 C 1090.87 425.49, 1089.51 426.04, 1087.35 427.03 C 1085.18 428.02, 1084.34 428.35, 1082.64 428.17 C 1080.93 428.00, 1080.18 427.74, 1078.82 426.17 C 1077.47 424.59, 1076.66 423.55, 1075.87 420.31 C 1075.09 417.08, 1074.65 414.85, 1074.89 409.99 C 1075.13 405.12, 1075.63 401.88, 1077.08 396.00 C 1078.53 390.11, 1079.73 386.47, 1082.13 380.57 C 1084.53 374.67, 1086.18 371.37, 1089.06 366.49 C 1091.94 361.60, 1093.80 359.31, 1096.52 356.16 C 1099.25 353.01, 1100.86 352.30, 1102.71 350.74 C 1104.56 349.18, 1105.11 348.82, 1105.79 348.35 C 1106.47 347.89, 1106.09 348.13, 1106.11 348.42 C 1106.13 348.70, 1105.61 349.23, 1105.91 349.77 C 1106.20 350.31, 1106.73 350.93, 1107.57 351.11 C 1108.42 351.30, 1109.41 351.29, 1110.13 350.69" style="stroke: black; fill: black;"/></svg>